<mxfile host="app.diagrams.net" modified="2023-08-29T09:37:15.694Z" agent="Mozilla/5.0 (Macintosh; Intel Mac OS X 10_15_7) AppleWebKit/537.36 (KHTML, like Gecko) Chrome/116.0.0.0 Safari/537.36" version="21.6.5" etag="P2-I0a2cgFbz-cNl1sTW" type="device">
  <diagram id="0joujoEAQfwYEJW-Mqk6" name="Page-1">
    <mxGraphModel dx="954" dy="1778" grid="1" gridSize="10" guides="1" tooltips="1" connect="1" arrows="1" fold="1" page="1" pageScale="1" pageWidth="827" pageHeight="1169" math="0" shadow="0">
      <root>
        <mxCell id="0" />
        <mxCell id="1" parent="0" />
        <mxCell id="B91kxjL0GumJ-Y_7rl9A-1" value="" style="rounded=0;whiteSpace=wrap;html=1;" vertex="1" parent="1">
          <mxGeometry x="160" y="-10" width="660" height="650" as="geometry" />
        </mxCell>
        <mxCell id="B91kxjL0GumJ-Y_7rl9A-2" value="Calendrier" style="text;align=center;fontStyle=1;verticalAlign=middle;spacingLeft=3;spacingRight=3;strokeColor=none;rotatable=0;points=[[0,0.5],[1,0.5]];portConstraint=eastwest;html=1;" vertex="1" parent="1">
          <mxGeometry x="450" y="20" width="80" height="26" as="geometry" />
        </mxCell>
        <mxCell id="B91kxjL0GumJ-Y_7rl9A-3" value="Client" style="shape=umlActor;verticalLabelPosition=bottom;verticalAlign=top;html=1;" vertex="1" parent="1">
          <mxGeometry x="70" y="210" width="30" height="60" as="geometry" />
        </mxCell>
        <mxCell id="B91kxjL0GumJ-Y_7rl9A-4" value="Elève" style="shape=umlActor;verticalLabelPosition=bottom;verticalAlign=top;html=1;" vertex="1" parent="1">
          <mxGeometry x="30" y="340" width="30" height="60" as="geometry" />
        </mxCell>
        <mxCell id="B91kxjL0GumJ-Y_7rl9A-5" value="Bénévole" style="shape=umlActor;verticalLabelPosition=bottom;verticalAlign=top;html=1;" vertex="1" parent="1">
          <mxGeometry x="110" y="340" width="30" height="60" as="geometry" />
        </mxCell>
        <mxCell id="B91kxjL0GumJ-Y_7rl9A-6" value="" style="endArrow=open;endFill=1;endSize=12;html=1;rounded=0;exitX=0.5;exitY=0;exitDx=0;exitDy=0;exitPerimeter=0;edgeStyle=orthogonalEdgeStyle;" edge="1" parent="1" source="B91kxjL0GumJ-Y_7rl9A-4" target="B91kxjL0GumJ-Y_7rl9A-3">
          <mxGeometry width="160" relative="1" as="geometry">
            <mxPoint x="80" y="350" as="sourcePoint" />
            <mxPoint x="90" y="280" as="targetPoint" />
          </mxGeometry>
        </mxCell>
        <mxCell id="B91kxjL0GumJ-Y_7rl9A-7" value="" style="endArrow=open;endFill=1;endSize=12;html=1;rounded=0;exitX=0.5;exitY=0;exitDx=0;exitDy=0;exitPerimeter=0;edgeStyle=orthogonalEdgeStyle;" edge="1" parent="1" source="B91kxjL0GumJ-Y_7rl9A-5" target="B91kxjL0GumJ-Y_7rl9A-3">
          <mxGeometry width="160" relative="1" as="geometry">
            <mxPoint x="55" y="350" as="sourcePoint" />
            <mxPoint x="95" y="280" as="targetPoint" />
          </mxGeometry>
        </mxCell>
        <mxCell id="B91kxjL0GumJ-Y_7rl9A-8" value="" style="html=1;verticalAlign=bottom;labelBackgroundColor=none;endArrow=block;endFill=1;rounded=0;exitX=0.5;exitY=0.5;exitDx=0;exitDy=0;exitPerimeter=0;entryX=0;entryY=0.452;entryDx=0;entryDy=0;entryPerimeter=0;" edge="1" parent="1" source="B91kxjL0GumJ-Y_7rl9A-3" target="B91kxjL0GumJ-Y_7rl9A-15">
          <mxGeometry width="160" relative="1" as="geometry">
            <mxPoint x="130.00000000000006" y="410" as="sourcePoint" />
            <mxPoint x="400" y="232.5" as="targetPoint" />
          </mxGeometry>
        </mxCell>
        <mxCell id="B91kxjL0GumJ-Y_7rl9A-9" value="Afficher les évènements" style="ellipse;html=1;whiteSpace=wrap;" vertex="1" parent="1">
          <mxGeometry x="225" y="420" width="170" height="70" as="geometry" />
        </mxCell>
        <mxCell id="B91kxjL0GumJ-Y_7rl9A-10" value="&amp;lt;&amp;lt;inclus&amp;gt;&amp;gt;" style="html=1;verticalAlign=bottom;labelBackgroundColor=none;endArrow=open;endFill=0;dashed=1;rounded=0;exitX=0.547;exitY=0.021;exitDx=0;exitDy=0;exitPerimeter=0;entryX=0;entryY=1;entryDx=0;entryDy=0;" edge="1" parent="1" source="B91kxjL0GumJ-Y_7rl9A-9" target="B91kxjL0GumJ-Y_7rl9A-15">
          <mxGeometry width="160" relative="1" as="geometry">
            <mxPoint x="350" y="330" as="sourcePoint" />
            <mxPoint x="455.98" y="285.55999999999995" as="targetPoint" />
          </mxGeometry>
        </mxCell>
        <mxCell id="B91kxjL0GumJ-Y_7rl9A-11" value="Afficher les rendez-vous" style="ellipse;html=1;whiteSpace=wrap;" vertex="1" parent="1">
          <mxGeometry x="585" y="420" width="170" height="70" as="geometry" />
        </mxCell>
        <mxCell id="B91kxjL0GumJ-Y_7rl9A-13" value="&amp;lt;&amp;lt;inclus&amp;gt;&amp;gt;" style="html=1;verticalAlign=bottom;labelBackgroundColor=none;endArrow=open;endFill=0;dashed=1;rounded=0;exitX=0.5;exitY=0;exitDx=0;exitDy=0;entryX=1;entryY=1;entryDx=0;entryDy=0;" edge="1" parent="1" source="B91kxjL0GumJ-Y_7rl9A-11" target="B91kxjL0GumJ-Y_7rl9A-15">
          <mxGeometry width="160" relative="1" as="geometry">
            <mxPoint x="283" y="431" as="sourcePoint" />
            <mxPoint x="490" y="290" as="targetPoint" />
          </mxGeometry>
        </mxCell>
        <mxCell id="B91kxjL0GumJ-Y_7rl9A-15" value="Calendrier" style="ellipse;html=1;whiteSpace=wrap;" vertex="1" parent="1">
          <mxGeometry x="395" y="150" width="190" height="135" as="geometry" />
        </mxCell>
      </root>
    </mxGraphModel>
  </diagram>
</mxfile>
